<?xml version="1.0" standalone="no"?>
<!DOCTYPE svg PUBLIC "-//W3C//DTD SVG 20010904//EN"
 "http://www.w3.org/TR/2001/REC-SVG-20010904/DTD/svg10.dtd">
<svg version="1.0" xmlns="http://www.w3.org/2000/svg"
 width="250.000000pt" height="250.000000pt" viewBox="0 0 250.000000 250.000000"
 preserveAspectRatio="xMidYMid meet">
<metadata>
Created by potrace 1.14, written by Peter Selinger 2001-2017
</metadata>
<g transform="translate(0.000000,250.000000) scale(0.100000,-0.100000)"
fill="#000000" stroke="none">
<path d="M0 1250 l0 -1250 1250 0 1250 0 0 1250 0 1250 -1250 0 -1250 0 0
-1250z m864 739 c14 -12 -13 -39 -38 -39 -18 0 -26 -11 -41 -52 -10 -29 -29
-74 -42 -100 -12 -26 -23 -52 -23 -58 0 -6 49 -10 134 -10 l134 0 49 59 c26
33 52 60 57 60 11 1 59 -35 134 -97 77 -66 66 -72 -124 -72 l-154 0 0 -200 0
-200 45 0 c43 0 46 2 96 65 28 36 54 65 57 65 14 0 172 -142 172 -155 0 -22
-25 -25 -204 -25 l-173 0 -11 -82 c-16 -113 -16 -114 20 -129 59 -24 173 -105
215 -152 54 -62 76 -111 77 -170 1 -41 -3 -52 -27 -73 -31 -26 -84 -32 -108
-11 -8 6 -26 39 -38 72 -24 61 -99 192 -145 254 -17 23 -27 29 -30 20 -50
-168 -133 -307 -253 -420 -79 -74 -208 -163 -223 -154 -19 12 -10 28 53 94
167 178 254 386 291 703 l6 48 -173 2 c-170 3 -172 3 -175 26 l-3 22 175 0
176 0 0 201 0 200 -42 -3 c-40 -3 -44 -6 -99 -87 -60 -87 -174 -211 -196 -211
-25 0 -22 21 16 97 55 109 115 289 146 435 15 68 28 128 30 134 3 12 221 -40
239 -57z m1174 -177 c23 -19 42 -39 42 -44 0 -5 -16 -16 -35 -24 l-35 -14 -2
-608 -3 -607 -39 -19 c-22 -11 -61 -21 -88 -24 l-48 -5 0 77 0 76 -160 0 -160
0 0 -60 c0 -47 -4 -63 -20 -78 -24 -22 -84 -42 -129 -42 l-31 0 0 725 c0 625
2 725 14 725 8 0 49 -16 92 -35 l76 -35 152 0 151 0 43 50 44 51 46 -38 c26
-20 66 -52 90 -71z"/>
<path d="M1510 1220 l0 -540 160 0 160 0 0 540 0 540 -160 0 -160 0 0 -540z"/>
</g>
</svg>
